# xmcd
#
# Track frame offsets: 
#        150
#        12426
#        22564
#        32350
#        42441
#        56033
#        68085
#        78635
#        90676
#        102764
#        114699
#        126234
#
# Disc length: 1868 seconds
#
# Revision: 0
# Processed by: cddbd v1.5.2PL0 Copyright (c) Steve Scherf et al.
# Submitted via: ExactAudioCopy v1.3
#
DISCID=92074a0c
DTITLE=Loretta Lynn - Icon
DYEAR=2011
DGENRE=Country
TTITLE0=Blue Kentucky Girl
TTITLE1=You Ain't Woman Enough (To Take My Man)
TTITLE2=Don't Come Home a Drinkin' (With Lovin' on Your Mind)
TTITLE3=Fist City
TTITLE4=Coal Miner's Daughter
TTITLE5=After the Fire Is Gone [Duet with Conway Twitty]
TTITLE6=You're Looking at Country
TTITLE7=One's on the Way
TTITLE8=Rated X
TTITLE9=Louisiana Woman, Mississippi Man [Duet with Conway Twitty]
TTITLE10=The Pill
TTITLE11=She's Got You
EXTD=
EXTT0=
EXTT1=
EXTT2=
EXTT3=
EXTT4=
EXTT5=
EXTT6=
EXTT7=
EXTT8=
EXTT9=
EXTT10=
EXTT11=
PLAYORDER=
